<?xml version="1.0" standalone="no"?>
<!DOCTYPE svg PUBLIC "-//W3C//DTD SVG 20010904//EN"
 "http://www.w3.org/TR/2001/REC-SVG-20010904/DTD/svg10.dtd">
<svg version="1.0" xmlns="http://www.w3.org/2000/svg"
 width="512.000000pt" height="512.000000pt" viewBox="0 0 512.000000 512.000000"
 preserveAspectRatio="xMidYMid meet">
<metadata>
Created by potrace 1.14, written by Peter Selinger 2001-2017
</metadata>
<g transform="translate(0.000000,512.000000) scale(0.100000,-0.100000)"
fill="#000000" stroke="none">
<path d="M0 2560 l0 -2560 2560 0 2560 0 0 2560 0 2560 -1440 0 -1440 0 0
-480 0 -480 160 0 160 0 0 -320 0 -320 800 0 800 0 0 -160 0 -160 160 0 160 0
0 -800 0 -800 -160 0 -160 0 0 -160 0 -160 -1600 0 -1600 0 0 160 0 160 -160
0 -160 0 0 800 0 800 160 0 160 0 0 160 0 160 640 0 640 0 0 160 0 160 -160 0
-160 0 0 640 0 640 -960 0 -960 0 0 -2560z"/>
<path d="M1280 3040 l0 -160 -160 0 -160 0 0 -480 0 -480 160 0 160 0 0 -160
0 -160 1280 0 1280 0 0 160 0 160 160 0 160 0 0 480 0 480 -160 0 -160 0 0
160 0 160 -1280 0 -1280 0 0 -160z m640 -320 l0 -160 160 0 160 0 0 -160 0
-160 -160 0 -160 0 0 -160 0 -160 -160 0 -160 0 0 160 0 160 -160 0 -160 0 0
160 0 160 160 0 160 0 0 160 0 160 160 0 160 0 0 -160z m1280 -320 l0 -160
-160 0 -160 0 0 160 0 160 160 0 160 0 0 -160z m640 0 l0 -160 -160 0 -160 0
0 160 0 160 160 0 160 0 0 -160z"/>
</g>
</svg>
